<svg t="1783818526614" class="icon" viewBox="0 0 1024 1024" version="1.1" xmlns="http://www.w3.org/2000/svg" p-id="8111" width="200" height="200"><path d="M912.066207 42.372414a116.524138 116.524138 0 0 0-88.275862-24.364138H211.862069C109.815172 18.008276 88.275862 65.324138 88.275862 105.931034v706.206897l847.448276-4.590345V105.931034a82.273103 82.273103 0 0 0-23.657931-63.55862zM918.068966 790.598621L105.931034 812.137931V105.931034c0-47.315862 35.310345-70.62069 105.931035-70.620689h612.281379C886.642759 32.838621 918.068966 55.790345 918.068966 105.931034z" fill="#FB4634" p-id="8112"></path><path d="M578.030345 273.655172a152.893793 152.893793 0 0 0-83.685517 25.070345 145.125517 145.125517 0 0 0-81.213794-25.070345A133.473103 133.473103 0 0 0 317.793103 312.849655a149.009655 149.009655 0 0 0-43.07862 105.931035c0 135.944828 170.902069 240.110345 190.675862 251.409655l7.768276 4.590345a44.137931 44.137931 0 0 0 44.491034 0l8.121379-4.590345c19.42069-11.652414 190.322759-116.171034 190.322759-251.409655a141.241379 141.241379 0 0 0-138.063448-145.125518zM515.531034 653.947586l-7.768275 4.590345a27.188966 27.188966 0 0 1-26.835862 0l-7.768276-4.590345c-18.714483-10.946207-181.848276-110.168276-181.848276-236.226207A123.233103 123.233103 0 0 1 413.131034 291.310345a127.117241 127.117241 0 0 1 81.213794 29.660689 128.176552 128.176552 0 0 1 83.332413-29.660689 122.173793 122.173793 0 0 1 119.702069 126.411034c0 125.351724-163.133793 225.28-181.848276 236.226207z" fill="#FB4634" p-id="8113"></path><path d="M824.143448 35.310345H211.862069c-70.62069 0-105.931034 23.304828-105.931035 70.620689v706.206897l812.137932-21.53931V105.931034c0-50.14069-31.426207-73.092414-93.925518-70.620689z m76.270345 737.986207l-776.827586 20.833103V105.931034c0-14.124138 0-51.553103 88.982069-51.553103h612.281379a84.038621 84.038621 0 0 1 62.852414 14.830345 48.375172 48.375172 0 0 1 12.711724 35.310345z" fill="#FB4634" p-id="8114"></path><path d="M577.324138 344.275862a75.917241 75.917241 0 0 0-60.733793 30.366897 27.188966 27.188966 0 0 1-42.372414 0 75.917241 75.917241 0 0 0-60.38069-30.366897 70.62069 70.62069 0 0 0-68.502069 73.445517c0 87.569655 122.526897 169.489655 150.068966 187.144828 55.084138-35.310345 150.068966-111.933793 150.068965-187.144828a70.62069 70.62069 0 0 0-68.148965-73.445517zM918.068966 962.206897h-81.213794a24.717241 24.717241 0 0 0 1.765518-8.827587v-114.75862H918.068966a26.482759 26.482759 0 0 0 0-52.965518H192.794483C94.278621 796.954483 79.448276 861.925517 79.448276 899.354483s14.830345 102.046897 112.993103 115.464827H918.068966a26.482759 26.482759 0 0 0 0-52.965517zM132.413793 899.354483c0-26.482759 7.768276-54.377931 63.558621-60.733793h589.682758V953.37931a24.717241 24.717241 0 0 0 1.765518 8.827587H197.737931C141.241379 953.37931 132.413793 925.837241 132.413793 899.354483z" fill="#FB4634" p-id="8115"></path><path d="M887.702069 68.148966a84.038621 84.038621 0 0 0-62.852414-14.830345H211.862069C123.586207 53.318621 123.586207 90.747586 123.586207 105.931034v688.198621l776.827586-20.833103V105.931034a48.375172 48.375172 0 0 0-12.711724-37.782068zM524.711724 670.896552l-8.121379 4.590345a44.137931 44.137931 0 0 1-44.491035 0l-7.768276-4.590345c-19.773793-11.29931-190.675862-115.464828-190.675862-251.409655A149.009655 149.009655 0 0 1 317.793103 312.849655a133.473103 133.473103 0 0 1 94.984828-39.194483 145.125517 145.125517 0 0 1 81.213793 25.070345 152.893793 152.893793 0 0 1 83.685517-25.070345 141.241379 141.241379 0 0 1 137.004138 144.066207c0.353103 135.238621-170.548966 239.757241-189.969655 253.175173zM88.275862 867.928276l78.035862-60.027586L88.275862 812.137931v55.790345z" fill="#FB4634" p-id="8116"></path></svg>